<svg width="48" height="48" viewBox="0 0 48 48" fill="none" xmlns="http://www.w3.org/2000/svg">
<rect width="48" height="48" fill="white"/>
<path d="M37 29C37 28.4477 36.5523 28 36 28L7 28C6.44772 28 6 28.4477 6 29L6 33C6 33.5523 6.44772 34 7 34L36 34C36.5523 34 37 33.5523 37 33L37 29Z" stroke="#152C5B" stroke-width="2"/>
<path d="M8.5 6L13 12.5L18 7" stroke="#FF2CD0" stroke-width="2" stroke-linecap="round"/>
<path d="M37 15C37 14.4477 36.5523 14 36 14L7 14C6.44772 14 6 14.4477 6 15L6 33C6 33.5523 6.44772 34 7 34L36 34C36.5523 34 37 33.5523 37 33L37 15Z" stroke="#152C5B" stroke-width="2"/>
<mask id="path-4-inside-1" fill="white">
<path d="M41 36C41 35.4477 40.5523 35 40 35L3 35C2.44772 35 2 35.4477 2 36C2 36.5523 2.44772 37 3 37L40 37C40.5523 37 41 36.5523 41 36Z"/>
</mask>
<path d="M40 37L3 37V33L40 33V37ZM3 35L40 35L40 39L3 39L3 35ZM40 35C39.4477 35 39 35.4477 39 36H43C43 37.6569 41.6569 39 40 39L40 35ZM4 36C4 35.4477 3.55228 35 3 35L3 39C1.34315 39 0 37.6569 0 36L4 36ZM3 37C3.55228 37 4 36.5523 4 36L0 36C0 34.3431 1.34315 33 3 33V37ZM40 33C41.6569 33 43 34.3431 43 36H39C39 36.5523 39.4477 37 40 37V33Z" fill="#152C5B" mask="url(#path-4-inside-1)"/>
<mask id="path-6-inside-2" fill="white">
<path d="M7.5 35.5C6.94772 35.5 6.5 35.9477 6.5 36.5L6.5 43.5C6.5 44.0523 6.94771 44.5 7.5 44.5C8.05228 44.5 8.5 44.0523 8.5 43.5L8.5 36.5C8.5 35.9477 8.05228 35.5 7.5 35.5Z"/>
</mask>
<path d="M8.5 36.5L8.5 43.5L4.5 43.5L4.5 36.5L8.5 36.5ZM6.5 43.5L6.5 36.5L10.5 36.5L10.5 43.5L6.5 43.5ZM6.5 36.5C6.5 37.0523 6.94772 37.5 7.5 37.5L7.5 33.5C9.15685 33.5 10.5 34.8431 10.5 36.5L6.5 36.5ZM7.5 42.5C6.94771 42.5 6.5 42.9477 6.5 43.5L10.5 43.5C10.5 45.1569 9.15685 46.5 7.5 46.5L7.5 42.5ZM8.5 43.5C8.5 42.9477 8.05228 42.5 7.5 42.5L7.5 46.5C5.84315 46.5 4.5 45.1569 4.5 43.5L8.5 43.5ZM4.5 36.5C4.5 34.8431 5.84315 33.5 7.5 33.5L7.5 37.5C8.05228 37.5 8.5 37.0523 8.5 36.5L4.5 36.5Z" fill="#152C5B" mask="url(#path-6-inside-2)"/>
<mask id="path-8-inside-3" fill="white">
<path d="M36 35.5C35.4477 35.5 35 35.9477 35 36.5L35 43.5C35 44.0523 35.4477 44.5 36 44.5C36.5523 44.5 37 44.0523 37 43.5L37 36.5C37 35.9477 36.5523 35.5 36 35.5Z"/>
</mask>
<path d="M37 36.5L37 43.5L33 43.5L33 36.5L37 36.5ZM35 43.5L35 36.5L39 36.5L39 43.5L35 43.5ZM35 36.5C35 37.0523 35.4477 37.5 36 37.5L36 33.5C37.6569 33.5 39 34.8431 39 36.5L35 36.5ZM36 42.5C35.4477 42.5 35 42.9477 35 43.5L39 43.5C39 45.1569 37.6569 46.5 36 46.5L36 42.5ZM37 43.5C37 42.9477 36.5523 42.5 36 42.5L36 46.5C34.3431 46.5 33 45.1569 33 43.5L37 43.5ZM33 36.5C33 34.8431 34.3431 33.5 36 33.5L36 37.5C36.5523 37.5 37 37.0523 37 36.5L33 36.5Z" fill="#152C5B" mask="url(#path-8-inside-3)"/>
<path d="M33 31H32" stroke="#FF2CD0" stroke-width="2" stroke-linecap="round"/>
</svg>
