<svg width="48" height="48" viewBox="0 0 48 48" fill="none" xmlns="http://www.w3.org/2000/svg">
<rect width="48" height="48" fill="white"/>
<path d="M9 33V38" stroke="black" stroke-width="2"/>
<mask id="path-2-inside-1" fill="white">
<rect x="12" y="13" width="8" height="8" rx="1"/>
</mask>
<rect x="12" y="13" width="8" height="8" rx="1" stroke="#FF2CD0" stroke-width="4" mask="url(#path-2-inside-1)"/>
<mask id="path-3-inside-2" fill="white">
<rect x="27" y="13" width="7" height="8" rx="1"/>
</mask>
<rect x="27" y="13" width="7" height="8" rx="1" stroke="#FF2CD0" stroke-width="4" mask="url(#path-3-inside-2)"/>
<path d="M39 33V38" stroke="black" stroke-width="2"/>
<path d="M8 10C8 9.44772 8.44772 9 9 9H39C39.5523 9 40 9.44772 40 10V21H8V10Z" stroke="#152C5B" stroke-width="2"/>
<path d="M6 21C6 20.4477 6.44772 20 7 20H41C41.5523 20 42 20.4477 42 21V31C42 31.5523 41.5523 32 41 32H7C6.44771 32 6 31.5523 6 31V21Z" stroke="#152C5B" stroke-width="2"/>
</svg>
