<svg width="48" height="48" viewBox="0 0 48 48" fill="none" xmlns="http://www.w3.org/2000/svg">
<rect width="48" height="48" fill="white"/>
<path d="M6 24C6 23.4477 6.44772 23 7 23H41C41.5523 23 42 23.4477 42 24V28C42 28.5523 41.5523 29 41 29H7C6.44771 29 6 28.5523 6 28V24Z" stroke="#152C5B" stroke-width="2"/>
<path d="M6 16C6 14.3431 7.34315 13 9 13H39C40.6569 13 42 14.3431 42 16V28C42 28.5523 41.5523 29 41 29H7C6.44771 29 6 28.5523 6 28V16Z" stroke="#152C5B" stroke-width="2"/>
<path d="M15 18.5H21.5" stroke="#FF2CD0" stroke-width="2" stroke-linecap="round"/>
<path d="M38 32L35.8404 34.6725C34.7446 36.0286 34.6534 37.9382 35.6149 39.3926L38 43" stroke="#152C5B" stroke-width="2" stroke-linecap="round"/>
<path d="M11 32L13.1596 34.6725C14.2554 36.0286 14.3466 37.9382 13.3851 39.3926L11 43" stroke="#152C5B" stroke-width="2" stroke-linecap="round"/>
<path d="M34 32L31.8404 34.6725C30.7446 36.0286 30.6534 37.9382 31.6149 39.3926L34 43" stroke="#152C5B" stroke-width="2" stroke-linecap="round"/>
<path d="M15 32L17.1596 34.6725C18.2554 36.0286 18.3466 37.9382 17.3851 39.3926L15 43" stroke="#152C5B" stroke-width="2" stroke-linecap="round"/>
</svg>
