<svg width="48" height="48" viewBox="0 0 48 48" fill="none" xmlns="http://www.w3.org/2000/svg">
<rect width="48" height="48" fill="white"/>
<path d="M5.44967 21.6489C5.59604 21.2586 5.96916 21 6.386 21H41.614C42.0308 21 42.404 21.2586 42.5503 21.6489L43.5437 24.2978C44.034 25.6053 43.0674 27 41.671 27H6.329C4.93259 27 3.96603 25.6053 4.45634 24.2978L5.44967 21.6489Z" stroke="#152C5B" stroke-width="2"/>
<path d="M8 41C7.44772 41 7 40.5523 7 40L7 28C7 27.4477 7.44771 27 8 27L9 27C9.55228 27 10 27.4477 10 28L10 40C10 40.5523 9.55229 41 9 41L8 41Z" stroke="#152C5B" stroke-width="2"/>
<mask id="path-3-inside-1" fill="white">
<path d="M19.5 22C19.2239 22 19 21.7761 19 21.5L19 16.5C19 16.2239 19.2239 16 19.5 16C19.7761 16 20 16.2239 20 16.5L20 21.5C20 21.7761 19.7761 22 19.5 22Z"/>
</mask>
<path d="M21 21.5L21 16.5L17 16.5L17 21.5L21 21.5ZM18 16.5L18 21.5L22 21.5L22 16.5L18 16.5ZM18 21.5C18 20.6716 18.6716 20 19.5 20L19.5 24C20.8807 24 22 22.8807 22 21.5L18 21.5ZM19.5 18C18.6716 18 18 17.3284 18 16.5L22 16.5C22 15.1193 20.8807 14 19.5 14L19.5 18ZM21 16.5C21 17.3284 20.3284 18 19.5 18L19.5 14C18.1193 14 17 15.1193 17 16.5L21 16.5ZM17 21.5C17 22.8807 18.1193 24 19.5 24L19.5 20C20.3284 20 21 20.6716 21 21.5L17 21.5Z" fill="#152C5B" mask="url(#path-3-inside-1)"/>
<mask id="path-5-inside-2" fill="white">
<path d="M29.5 22C29.2239 22 29 21.7761 29 21.5L29 16.5C29 16.2239 29.2239 16 29.5 16C29.7761 16 30 16.2239 30 16.5L30 21.5C30 21.7761 29.7761 22 29.5 22Z"/>
</mask>
<path d="M31 21.5L31 16.5L27 16.5L27 21.5L31 21.5ZM28 16.5L28 21.5L32 21.5L32 16.5L28 16.5ZM28 21.5C28 20.6716 28.6716 20 29.5 20L29.5 24C30.8807 24 32 22.8807 32 21.5L28 21.5ZM29.5 18C28.6716 18 28 17.3284 28 16.5L32 16.5C32 15.1193 30.8807 14 29.5 14L29.5 18ZM31 16.5C31 17.3284 30.3284 18 29.5 18L29.5 14C28.1193 14 27 15.1193 27 16.5L31 16.5ZM27 21.5C27 22.8807 28.1193 24 29.5 24L29.5 20C30.3284 20 31 20.6716 31 21.5L27 21.5Z" fill="#152C5B" mask="url(#path-5-inside-2)"/>
<path d="M19 16C18.4477 16 18 15.5523 18 15L18 12L21 12L21 15C21 15.5523 20.5523 16 20 16L19 16Z" stroke="#FF2CD0" stroke-width="2"/>
<path d="M29 16C28.4477 16 28 15.5523 28 15L28 12L31 12L31 15C31 15.5523 30.5523 16 30 16L29 16Z" stroke="#FF2CD0" stroke-width="2"/>
<path d="M39 41C38.4477 41 38 40.5523 38 40L38 28C38 27.4477 38.4477 27 39 27L40 27C40.5523 27 41 27.4477 41 28L41 40C41 40.5523 40.5523 41 40 41L39 41Z" stroke="#152C5B" stroke-width="2"/>
</svg>
