<svg width="48" height="48" viewBox="0 0 48 48" fill="none" xmlns="http://www.w3.org/2000/svg">
<rect width="48" height="48" fill="white"/>
<path d="M28.9534 38.9719C29.3473 39.2513 29.4606 39.4338 29.4913 39.5C29.4606 39.5662 29.3473 39.7487 28.9534 40.0281C28.3808 40.4343 27.4548 40.8615 26.1756 41.2452C23.6362 42.0071 20.0382 42.5 16 42.5C11.9618 42.5 8.36379 42.0071 5.82442 41.2452C4.54519 40.8615 3.61923 40.4343 3.04657 40.0281C2.65266 39.7487 2.53943 39.5662 2.50873 39.5C2.53943 39.4338 2.65266 39.2513 3.04657 38.9719C3.61923 38.5657 4.54519 38.1385 5.82442 37.7548C8.36379 36.9929 11.9618 36.5 16 36.5C20.0382 36.5 23.6362 36.9929 26.1756 37.7548C27.4548 38.1385 28.3808 38.5657 28.9534 38.9719Z" stroke="#152C5B" stroke-width="3"/>
<path d="M27.5 14.9882C27.5 18.2997 26.1201 24.2138 23.8244 29.3189C22.6821 31.8588 21.3565 34.0986 19.9425 35.6784C18.5045 37.2849 17.1693 38 16 38C14.8307 38 13.4955 37.2849 12.0575 35.6784C10.6435 34.0986 9.31786 31.8588 8.17564 29.3189C5.87988 24.2138 4.5 18.2997 4.5 14.9882C4.5 8.64474 9.64744 3.5 16 3.5C22.3526 3.5 27.5 8.64474 27.5 14.9882Z" fill="#F0F0F0" stroke="#152C5B" stroke-width="3"/>
<circle cx="16" cy="15" r="5" stroke="#ED1797" stroke-width="2"/>
</svg>
