<svg width="48" height="48" viewBox="0 0 48 48" fill="none" xmlns="http://www.w3.org/2000/svg">
<rect width="48" height="48" fill="white"/>
<mask id="path-1-inside-1" fill="white">
<path fill-rule="evenodd" clip-rule="evenodd" d="M16.3286 11C14.9527 11 13.7532 11.9359 13.4186 13.2705L12.7344 16H4C1.79086 16 0 17.7909 0 20V33C0 35.2091 1.79086 37 4 37H33C35.2091 37 37 35.2091 37 33V20C37 17.7909 35.2091 16 33 16H23.1626L22.301 13.1358C21.9196 11.8679 20.7522 11 19.4282 11H16.3286Z"/>
</mask>
<path d="M13.4186 13.2705L10.5087 12.5411V12.5411L13.4186 13.2705ZM12.7344 16V19H15.0752L15.6444 16.7295L12.7344 16ZM23.1626 16L20.2898 16.8642L20.9322 19H23.1626V16ZM22.301 13.1358L19.4282 14V14L22.301 13.1358ZM16.3286 14V14V8C13.5768 8 11.1778 9.87188 10.5087 12.5411L16.3286 14ZM15.6444 16.7295L16.3286 14L10.5087 12.5411L9.82446 15.2705L15.6444 16.7295ZM4 19H12.7344V13H4V19ZM3 20C3 19.4477 3.44772 19 4 19V13C0.134007 13 -3 16.134 -3 20H3ZM3 33V20H-3V33H3ZM4 34C3.44772 34 3 33.5523 3 33H-3C-3 36.866 0.134006 40 4 40V34ZM33 34H4V40H33V34ZM34 33C34 33.5523 33.5523 34 33 34V40C36.866 40 40 36.866 40 33H34ZM34 20V33H40V20H34ZM33 19C33.5523 19 34 19.4477 34 20H40C40 16.134 36.866 13 33 13V19ZM23.1626 19H33V13H23.1626V19ZM19.4282 14L20.2898 16.8642L26.0354 15.1358L25.1739 12.2716L19.4282 14ZM19.4282 14L25.1739 12.2716C24.4111 9.73588 22.0762 8 19.4282 8V14ZM16.3286 14H19.4282V8H16.3286V14Z" fill="#152C5B" mask="url(#path-1-inside-1)"/>
<circle cx="17" cy="26" r="5" stroke="#ED1797" stroke-width="2"/>
<path d="M25 21.5H31" stroke="#152C5B" stroke-width="2" stroke-linecap="round"/>
</svg>
